<svg xmlns="http://www.w3.org/2000/svg" xmlns:xlink="http://www.w3.org/1999/xlink" width="858" height="858" viewBox="0 0 858 858">
  <defs>
    <style>
      .cls-1 {
        fill: #fff;
      }

      .cls-2 {
        opacity: 0.11;
      }

      .cls-3 {
        clip-path: url(#clip-path);
      }
    </style>
    <clipPath id="clip-path">
      <rect id="Retângulo_2" data-name="Retângulo 2" class="cls-1" width="858" height="858"/>
    </clipPath>
  </defs>
  <g id="github-background" class="cls-2" transform="translate(0 40)">
    <g id="Grupo_1" data-name="Grupo 1" class="cls-3" transform="translate(0 -40)">
      <path id="Caminho_4" data-name="Caminho 4" class="cls-1" d="M428.788-25.667C191.883-25.667,0,163,0,395.69c0,186.2,122.848,344.1,293.184,399.773,21.439,3.966,29.3-9.076,29.3-20.26,0-10.005-.358-36.518-.536-71.643C202.673,728.965,177.518,647.03,177.518,647.03c-19.51-48.631-47.7-61.638-47.7-61.638-38.841-26.12,3-25.584,3-25.584,43.057,2.929,65.676,43.415,65.676,43.415,38.234,64.425,100.373,45.808,124.885,35.053,3.859-27.264,14.9-45.809,27.157-56.351-95.227-10.54-195.313-46.773-195.313-208.212,0-45.988,16.616-83.579,44.129-113.058-4.824-10.647-19.3-53.491,3.752-111.52,0,0,35.911-11.292,117.917,43.2a411.1,411.1,0,0,1,214.394,0c81.47-54.492,117.381-43.2,117.381-43.2,23.047,58.028,8.576,100.872,4.288,111.52,27.335,29.479,43.951,67.07,43.951,113.058,0,161.867-100.229,197.492-195.635,207.855,15.008,12.649,28.943,38.484,28.943,77.967,0,56.386-.536,101.7-.536,115.38,0,11.041,7.5,24.227,29.479,20.01C734.836,739.612,857.576,581.6,857.576,395.69,857.576,163,665.586-25.667,428.788-25.667Z" transform="translate(0 43.533)"/>
    </g>
  </g>
</svg>
