<svg xmlns="http://www.w3.org/2000/svg" width="214.266" height="32" viewBox="0 0 214.266 32"><path d="M48.961,17.566a7.412,7.412,0,0,1,1.383-4.711,4.467,4.467,0,0,1,3.691-1.77,4.175,4.175,0,0,1,3.41,1.512l.129-1.277h2.566V23.613a5.1,5.1,0,0,1-1.559,3.938A5.893,5.893,0,0,1,54.4,28.992a6.734,6.734,0,0,1-2.73-.586,4.8,4.8,0,0,1-2.016-1.512L51,25.184a4.07,4.07,0,0,0,3.234,1.559,3.131,3.131,0,0,0,2.238-.773,2.923,2.923,0,0,0,.82-2.25v-.855a4.193,4.193,0,0,1-3.281,1.371,4.462,4.462,0,0,1-3.645-1.77A7.679,7.679,0,0,1,48.961,17.566Zm2.836.246a5.163,5.163,0,0,0,.773,3.012,2.525,2.525,0,0,0,2.168,1.09,2.741,2.741,0,0,0,2.555-1.477V14.859a2.7,2.7,0,0,0-2.531-1.441,2.531,2.531,0,0,0-2.191,1.113A5.75,5.75,0,0,0,51.8,17.813ZM66.105,24H63.258V11.32h2.848ZM63.082,8.027a1.524,1.524,0,0,1,.41-1.09,1.864,1.864,0,0,1,2.391,0,1.5,1.5,0,0,1,.422,1.09,1.485,1.485,0,0,1-.422,1.078,1.9,1.9,0,0,1-2.391,0A1.508,1.508,0,0,1,63.082,8.027Zm9.7.211V11.32h2.238V13.43H72.785v7.078a1.607,1.607,0,0,0,.281,1.055,1.368,1.368,0,0,0,1.031.316,4.389,4.389,0,0,0,1-.117v2.2a7.014,7.014,0,0,1-1.875.27q-3.281,0-3.281-3.621V13.43H67.852V11.32h2.086V8.238Zm7.23,4.465a4.457,4.457,0,0,1,3.527-1.617q4.055,0,4.113,4.629V24H84.809V15.82a2.466,2.466,0,0,0-.574-1.852,2.287,2.287,0,0,0-1.664-.551,2.743,2.743,0,0,0-2.555,1.523V24H77.168V6h2.848ZM98.227,22.758a4.417,4.417,0,0,1-3.562,1.477,3.955,3.955,0,0,1-3.129-1.207,5.153,5.153,0,0,1-1.055-3.492V11.32h2.848V19.5q0,2.414,2,2.414a2.814,2.814,0,0,0,2.8-1.488V11.32h2.847V24H98.3Zm16.781-4.969a7.6,7.6,0,0,1-1.324,4.7,4.28,4.28,0,0,1-3.622,1.746,4.135,4.135,0,0,1-3.468-1.605L106.453,24h-2.578V6h2.848v6.539a4.12,4.12,0,0,1,3.316-1.453,4.345,4.345,0,0,1,3.645,1.723,7.748,7.748,0,0,1,1.324,4.816Zm-2.848-.246a5.387,5.387,0,0,0-.726-3.094,2.421,2.421,0,0,0-2.11-1.031,2.643,2.643,0,0,0-2.6,1.617v5.226a2.67,2.67,0,0,0,2.625,1.652,2.4,2.4,0,0,0,2.062-1,5.207,5.207,0,0,0,.75-3.012Z" fill="#fff"/><path d="M126.727,26.238H115.98V24h10.747Zm7.089-2a5.922,5.922,0,0,1-4.394-1.7,6.219,6.219,0,0,1-1.676-4.547v-.352a7.614,7.614,0,0,1,.727-3.387,5.6,5.6,0,0,1,2.062-2.332,5.437,5.437,0,0,1,2.953-.832,4.957,4.957,0,0,1,4,1.652,6.964,6.964,0,0,1,1.418,4.676v1.148h-8.285a3.825,3.825,0,0,0,1.043,2.484,3.169,3.169,0,0,0,2.32.914,3.856,3.856,0,0,0,3.188-1.582l1.535,1.465a5.16,5.16,0,0,1-2.039,1.77A6.38,6.38,0,0,1,133.816,24.234Zm-.339-10.863a2.415,2.415,0,0,0-1.9.82,4.286,4.286,0,0,0-.914,2.285h5.426v-.211a3.439,3.439,0,0,0-.762-2.156A2.368,2.368,0,0,0,133.477,13.371Zm12.2,2.121,2.414-4.172h3.164l-3.879,6.246L151.383,24h-3.141l-2.531-4.336L143.191,24h-3.164l4.008-6.434-3.867-6.246h3.141Zm18.621,2.3a7.573,7.573,0,0,1-1.336,4.7,4.646,4.646,0,0,1-6.926.375v6.012h-2.847V11.32h2.624l.118,1.289a4.182,4.182,0,0,1,3.41-1.523,4.3,4.3,0,0,1,3.633,1.734,7.705,7.705,0,0,1,1.324,4.793Zm-2.836-.246a5.256,5.256,0,0,0-.762-3.012,2.443,2.443,0,0,0-2.156-1.113,2.621,2.621,0,0,0-2.508,1.441v5.625a2.645,2.645,0,0,0,2.531,1.476,2.444,2.444,0,0,0,2.122-1.09A5.822,5.822,0,0,0,161.461,17.543ZM169.746,24H166.9V6h2.848Zm2.578-6.457a7.442,7.442,0,0,1,.738-3.352,5.352,5.352,0,0,1,2.075-2.3,5.81,5.81,0,0,1,3.07-.809,5.518,5.518,0,0,1,4.16,1.652,6.482,6.482,0,0,1,1.735,4.383l.011.668a7.5,7.5,0,0,1-.726,3.351,5.279,5.279,0,0,1-2.063,2.285,5.856,5.856,0,0,1-3.094.809,5.526,5.526,0,0,1-4.3-1.781,6.879,6.879,0,0,1-1.606-4.77Zm2.848.246a5.137,5.137,0,0,0,.808,3.07,2.636,2.636,0,0,0,2.25,1.1,2.586,2.586,0,0,0,2.239-1.125,5.612,5.612,0,0,0,.808-3.293,5.015,5.015,0,0,0-.832-3.047,2.774,2.774,0,0,0-4.453-.012A5.508,5.508,0,0,0,175.172,17.789Zm17.988-3.867a7.049,7.049,0,0,0-1.16-.094,2.612,2.612,0,0,0-2.637,1.5V24h-2.847V11.32h2.718l.071,1.418a3.207,3.207,0,0,1,2.859-1.652,2.668,2.668,0,0,1,1.008.164Zm7.149,10.313a5.923,5.923,0,0,1-4.4-1.7,6.219,6.219,0,0,1-1.676-4.547v-.352a7.614,7.614,0,0,1,.727-3.387,5.61,5.61,0,0,1,2.062-2.332,5.439,5.439,0,0,1,2.953-.832,4.961,4.961,0,0,1,4,1.652,6.969,6.969,0,0,1,1.418,4.676v1.148h-8.286a3.825,3.825,0,0,0,1.043,2.484,3.171,3.171,0,0,0,2.321.914,3.855,3.855,0,0,0,3.187-1.582l1.535,1.465a5.153,5.153,0,0,1-2.039,1.77A6.379,6.379,0,0,1,200.309,24.234Zm-.34-10.863a2.418,2.418,0,0,0-1.9.82,4.286,4.286,0,0,0-.914,2.285h5.426v-.211a3.427,3.427,0,0,0-.762-2.156A2.368,2.368,0,0,0,199.969,13.371Zm14.285.551a7.049,7.049,0,0,0-1.16-.094,2.612,2.612,0,0,0-2.637,1.5V24h-2.848V11.32h2.719l.07,1.418a3.21,3.21,0,0,1,2.86-1.652,2.669,2.669,0,0,1,1.008.164Z" fill="#fff"/><path d="M0,16A16,16,0,1,1,16,32,16,16,0,0,1,0,16Zm6.4,9.6,13.1-6.1L25.6,6.4,12.5,12.5ZM17.76,16A1.76,1.76,0,1,1,16,14.24,1.76,1.76,0,0,1,17.76,16Z" fill="#fff" fill-rule="evenodd"/></svg>